<svg xmlns="http://www.w3.org/2000/svg" viewBox="0 0 760 32" width="760" height="32"
     font-family="-apple-system, BlinkMacSystemFont, 'SF Pro Text', 'Helvetica Neue', Segoe UI, sans-serif"
     font-size="13" font-weight="500">
  <defs>
    <linearGradient id="bg" x1="0" y1="0" x2="0" y2="1">
      <stop offset="0%"  stop-color="#fafafa"/>
      <stop offset="100%" stop-color="#ebebec"/>
    </linearGradient>
  </defs>
  <rect width="760" height="32" fill="url(#bg)"/>
  <rect x="0" y="31" width="760" height="1" fill="#d4d4d8"/>

  <!-- prime logo glyph (stylized) -->
  <g transform="translate(14, 8)">
    <path d="M 0 14 L 0 4 Q 0 0 4 0 L 12 0 Q 16 0 16 4 L 16 7 Q 16 11 12 11 L 4 11" fill="none" stroke="#111" stroke-width="2.2"/>
  </g>

  <!-- balance -->
  <text x="40" y="21" fill="#111">$2,471.96</text>

  <!-- separator -->
  <text x="118" y="21" fill="#a1a1aa">│</text>

  <!-- per-watch tokens -->
  <text x="132" y="21" fill="#9ca3af">H100</text>
  <text x="165" y="21" fill="#9ca3af">·</text>

  <text x="186" y="21" fill="#1a8a3e">H200</text>
  <text x="220" y="21" fill="#1a8a3e" font-weight="600">×1</text>

  <text x="252" y="21" fill="#1a8a3e">A100</text>
  <text x="286" y="21" fill="#1a8a3e" font-weight="600">×6</text>

  <text x="318" y="21" fill="#1a8a3e">B300</text>
  <text x="352" y="21" fill="#1a8a3e" font-weight="600">×2</text>

  <!-- faint trailing system menu items -->
  <g opacity="0.40" fill="#111">
    <text x="552" y="21">􀢹</text>
    <text x="578" y="21">􀇰</text>
    <text x="608" y="21">100%</text>
    <text x="654" y="21">Tue 21:14</text>
    <circle cx="728" cy="16" r="6" fill="none" stroke="#111" stroke-width="1.4"/>
    <line x1="728" y1="13" x2="728" y2="19" stroke="#111" stroke-width="1.4"/>
  </g>
</svg>
